<mxfile host="Electron" modified="2024-02-25T19:43:40.285Z" agent="Mozilla/5.0 (Windows NT 10.0; Win64; x64) AppleWebKit/537.36 (KHTML, like Gecko) draw.io/23.1.5 Chrome/120.0.6099.109 Electron/28.1.0 Safari/537.36" etag="hCHY98XbDpUax7rV7btH" version="23.1.5" type="device">
  <diagram name="Страница — 1" id="hWGT4BdKTBJzE0HorKUL">
    <mxGraphModel dx="1095" dy="1285" grid="1" gridSize="10" guides="1" tooltips="1" connect="1" arrows="1" fold="1" page="1" pageScale="1" pageWidth="827" pageHeight="1169" math="0" shadow="0">
      <root>
        <mxCell id="0" />
        <mxCell id="1" parent="0" />
        <mxCell id="x2tvGu-vx3yb6WhZjUYL-2" style="edgeStyle=orthogonalEdgeStyle;rounded=0;orthogonalLoop=1;jettySize=auto;html=1;exitX=0.5;exitY=1;exitDx=0;exitDy=0;" edge="1" parent="1" source="x2tvGu-vx3yb6WhZjUYL-1" target="x2tvGu-vx3yb6WhZjUYL-3">
          <mxGeometry relative="1" as="geometry">
            <mxPoint x="380" y="100" as="targetPoint" />
          </mxGeometry>
        </mxCell>
        <mxCell id="x2tvGu-vx3yb6WhZjUYL-1" value="bool finding_similars(string row)" style="ellipse;whiteSpace=wrap;html=1;" vertex="1" parent="1">
          <mxGeometry x="270" y="20" width="220" height="40" as="geometry" />
        </mxCell>
        <mxCell id="x2tvGu-vx3yb6WhZjUYL-5" value="" style="edgeStyle=orthogonalEdgeStyle;rounded=0;orthogonalLoop=1;jettySize=auto;html=1;" edge="1" parent="1" source="x2tvGu-vx3yb6WhZjUYL-3" target="x2tvGu-vx3yb6WhZjUYL-4">
          <mxGeometry relative="1" as="geometry" />
        </mxCell>
        <mxCell id="x2tvGu-vx3yb6WhZjUYL-3" value="bool matching = false;" style="rounded=1;whiteSpace=wrap;html=1;absoluteArcSize=1;arcSize=14;strokeWidth=2;" vertex="1" parent="1">
          <mxGeometry x="290" y="80" width="180" height="40" as="geometry" />
        </mxCell>
        <mxCell id="x2tvGu-vx3yb6WhZjUYL-6" style="edgeStyle=orthogonalEdgeStyle;rounded=0;orthogonalLoop=1;jettySize=auto;html=1;exitX=0.5;exitY=1;exitDx=0;exitDy=0;" edge="1" parent="1" source="x2tvGu-vx3yb6WhZjUYL-4" target="x2tvGu-vx3yb6WhZjUYL-9">
          <mxGeometry relative="1" as="geometry">
            <mxPoint x="380" y="220" as="targetPoint" />
          </mxGeometry>
        </mxCell>
        <mxCell id="x2tvGu-vx3yb6WhZjUYL-4" value="string* words = new string[100];" style="rounded=1;whiteSpace=wrap;html=1;absoluteArcSize=1;arcSize=14;strokeWidth=2;" vertex="1" parent="1">
          <mxGeometry x="290" y="140" width="180" height="40" as="geometry" />
        </mxCell>
        <mxCell id="x2tvGu-vx3yb6WhZjUYL-10" style="edgeStyle=orthogonalEdgeStyle;rounded=0;orthogonalLoop=1;jettySize=auto;html=1;exitX=0.5;exitY=1;exitDx=0;exitDy=0;" edge="1" parent="1" source="x2tvGu-vx3yb6WhZjUYL-9" target="x2tvGu-vx3yb6WhZjUYL-11">
          <mxGeometry relative="1" as="geometry">
            <mxPoint x="380" y="270" as="targetPoint" />
          </mxGeometry>
        </mxCell>
        <mxCell id="x2tvGu-vx3yb6WhZjUYL-9" value="int cur;" style="rounded=1;whiteSpace=wrap;html=1;absoluteArcSize=1;arcSize=14;strokeWidth=2;" vertex="1" parent="1">
          <mxGeometry x="330" y="200" width="100" height="40" as="geometry" />
        </mxCell>
        <mxCell id="x2tvGu-vx3yb6WhZjUYL-12" style="edgeStyle=orthogonalEdgeStyle;rounded=0;orthogonalLoop=1;jettySize=auto;html=1;exitX=0.5;exitY=1;exitDx=0;exitDy=0;" edge="1" parent="1" source="x2tvGu-vx3yb6WhZjUYL-11" target="x2tvGu-vx3yb6WhZjUYL-13">
          <mxGeometry relative="1" as="geometry">
            <mxPoint x="380" y="340" as="targetPoint" />
          </mxGeometry>
        </mxCell>
        <mxCell id="x2tvGu-vx3yb6WhZjUYL-11" value="int i = 0;" style="rounded=1;whiteSpace=wrap;html=1;absoluteArcSize=1;arcSize=14;strokeWidth=2;" vertex="1" parent="1">
          <mxGeometry x="330" y="260" width="100" height="40" as="geometry" />
        </mxCell>
        <mxCell id="x2tvGu-vx3yb6WhZjUYL-14" style="edgeStyle=orthogonalEdgeStyle;rounded=0;orthogonalLoop=1;jettySize=auto;html=1;exitX=0.5;exitY=1;exitDx=0;exitDy=0;" edge="1" parent="1" source="x2tvGu-vx3yb6WhZjUYL-13" target="x2tvGu-vx3yb6WhZjUYL-15">
          <mxGeometry relative="1" as="geometry">
            <mxPoint x="380" y="400" as="targetPoint" />
          </mxGeometry>
        </mxCell>
        <mxCell id="x2tvGu-vx3yb6WhZjUYL-13" value="int j = 0;" style="rounded=1;whiteSpace=wrap;html=1;absoluteArcSize=1;arcSize=14;strokeWidth=2;" vertex="1" parent="1">
          <mxGeometry x="330" y="320" width="100" height="40" as="geometry" />
        </mxCell>
        <mxCell id="x2tvGu-vx3yb6WhZjUYL-16" style="edgeStyle=orthogonalEdgeStyle;rounded=0;orthogonalLoop=1;jettySize=auto;html=1;exitX=0.5;exitY=1;exitDx=0;exitDy=0;" edge="1" parent="1" source="x2tvGu-vx3yb6WhZjUYL-15">
          <mxGeometry relative="1" as="geometry">
            <mxPoint x="380" y="440" as="targetPoint" />
          </mxGeometry>
        </mxCell>
        <mxCell id="x2tvGu-vx3yb6WhZjUYL-15" value="int n = 0;" style="rounded=1;whiteSpace=wrap;html=1;absoluteArcSize=1;arcSize=14;strokeWidth=2;" vertex="1" parent="1">
          <mxGeometry x="330" y="380" width="100" height="40" as="geometry" />
        </mxCell>
        <mxCell id="x2tvGu-vx3yb6WhZjUYL-17" style="edgeStyle=orthogonalEdgeStyle;rounded=0;orthogonalLoop=1;jettySize=auto;html=1;exitX=1;exitY=0.5;exitDx=0;exitDy=0;exitPerimeter=0;" edge="1" source="x2tvGu-vx3yb6WhZjUYL-19" parent="1" target="x2tvGu-vx3yb6WhZjUYL-62">
          <mxGeometry relative="1" as="geometry">
            <mxPoint x="680" y="540" as="targetPoint" />
            <Array as="points">
              <mxPoint x="680" y="470" />
              <mxPoint x="680" y="540" />
            </Array>
          </mxGeometry>
        </mxCell>
        <mxCell id="x2tvGu-vx3yb6WhZjUYL-18" style="edgeStyle=orthogonalEdgeStyle;rounded=0;orthogonalLoop=1;jettySize=auto;html=1;exitX=0.5;exitY=1;exitDx=0;exitDy=0;exitPerimeter=0;" edge="1" source="x2tvGu-vx3yb6WhZjUYL-19" parent="1">
          <mxGeometry relative="1" as="geometry">
            <mxPoint x="380" y="540" as="targetPoint" />
          </mxGeometry>
        </mxCell>
        <mxCell id="x2tvGu-vx3yb6WhZjUYL-19" value="while (i &amp;lt;= size(row))" style="strokeWidth=2;html=1;shape=mxgraph.flowchart.decision;whiteSpace=wrap;" vertex="1" parent="1">
          <mxGeometry x="280" y="440" width="200" height="60" as="geometry" />
        </mxCell>
        <mxCell id="x2tvGu-vx3yb6WhZjUYL-20" value="1" style="text;html=1;strokeColor=none;fillColor=none;align=center;verticalAlign=middle;whiteSpace=wrap;rounded=0;" vertex="1" parent="1">
          <mxGeometry x="350" y="500" width="30" height="30" as="geometry" />
        </mxCell>
        <mxCell id="x2tvGu-vx3yb6WhZjUYL-21" value="0" style="text;html=1;strokeColor=none;fillColor=none;align=center;verticalAlign=middle;whiteSpace=wrap;rounded=0;" vertex="1" parent="1">
          <mxGeometry x="479.28999999999996" y="440" width="30" height="30" as="geometry" />
        </mxCell>
        <mxCell id="x2tvGu-vx3yb6WhZjUYL-22" value="{" style="text;html=1;strokeColor=none;fillColor=none;align=center;verticalAlign=middle;whiteSpace=wrap;rounded=0;" vertex="1" parent="1">
          <mxGeometry x="380" y="500" width="30" height="30" as="geometry" />
        </mxCell>
        <mxCell id="x2tvGu-vx3yb6WhZjUYL-24" style="edgeStyle=orthogonalEdgeStyle;rounded=0;orthogonalLoop=1;jettySize=auto;html=1;exitX=0.5;exitY=1;exitDx=0;exitDy=0;" edge="1" parent="1" source="x2tvGu-vx3yb6WhZjUYL-23" target="x2tvGu-vx3yb6WhZjUYL-25">
          <mxGeometry relative="1" as="geometry">
            <mxPoint x="240" y="690" as="targetPoint" />
          </mxGeometry>
        </mxCell>
        <mxCell id="x2tvGu-vx3yb6WhZjUYL-23" value="words[n].insert(0, row, j, i - j);" style="shape=parallelogram;html=1;strokeWidth=2;perimeter=parallelogramPerimeter;whiteSpace=wrap;rounded=1;arcSize=12;size=0.16666666666666666;" vertex="1" parent="1">
          <mxGeometry x="130" y="610" width="220" height="40" as="geometry" />
        </mxCell>
        <mxCell id="x2tvGu-vx3yb6WhZjUYL-26" style="edgeStyle=orthogonalEdgeStyle;rounded=0;orthogonalLoop=1;jettySize=auto;html=1;exitX=0.5;exitY=1;exitDx=0;exitDy=0;" edge="1" parent="1" source="x2tvGu-vx3yb6WhZjUYL-25" target="x2tvGu-vx3yb6WhZjUYL-27">
          <mxGeometry relative="1" as="geometry">
            <mxPoint x="240" y="750" as="targetPoint" />
          </mxGeometry>
        </mxCell>
        <mxCell id="x2tvGu-vx3yb6WhZjUYL-25" value="j = i + 1;" style="rounded=1;whiteSpace=wrap;html=1;absoluteArcSize=1;arcSize=14;strokeWidth=2;" vertex="1" parent="1">
          <mxGeometry x="190" y="670" width="100" height="40" as="geometry" />
        </mxCell>
        <mxCell id="x2tvGu-vx3yb6WhZjUYL-28" style="edgeStyle=orthogonalEdgeStyle;rounded=0;orthogonalLoop=1;jettySize=auto;html=1;exitX=0.5;exitY=1;exitDx=0;exitDy=0;" edge="1" parent="1" source="x2tvGu-vx3yb6WhZjUYL-27">
          <mxGeometry relative="1" as="geometry">
            <mxPoint x="240" y="790" as="targetPoint" />
          </mxGeometry>
        </mxCell>
        <mxCell id="x2tvGu-vx3yb6WhZjUYL-27" value="cur = 1;" style="rounded=1;whiteSpace=wrap;html=1;absoluteArcSize=1;arcSize=14;strokeWidth=2;" vertex="1" parent="1">
          <mxGeometry x="190" y="730" width="100" height="40" as="geometry" />
        </mxCell>
        <mxCell id="x2tvGu-vx3yb6WhZjUYL-29" style="edgeStyle=orthogonalEdgeStyle;rounded=0;orthogonalLoop=1;jettySize=auto;html=1;exitX=0.5;exitY=1;exitDx=0;exitDy=0;" edge="1" source="x2tvGu-vx3yb6WhZjUYL-31" parent="1">
          <mxGeometry relative="1" as="geometry">
            <mxPoint x="240" y="870" as="targetPoint" />
          </mxGeometry>
        </mxCell>
        <mxCell id="x2tvGu-vx3yb6WhZjUYL-30" style="edgeStyle=orthogonalEdgeStyle;rounded=0;orthogonalLoop=1;jettySize=auto;html=1;exitX=1;exitY=0.5;exitDx=0;exitDy=0;entryX=0.5;entryY=0;entryDx=0;entryDy=0;" edge="1" source="x2tvGu-vx3yb6WhZjUYL-31" parent="1" target="x2tvGu-vx3yb6WhZjUYL-43">
          <mxGeometry relative="1" as="geometry">
            <mxPoint x="420" y="830" as="targetPoint" />
            <Array as="points">
              <mxPoint x="500" y="810" />
            </Array>
          </mxGeometry>
        </mxCell>
        <mxCell id="x2tvGu-vx3yb6WhZjUYL-31" value="for (int nn = 0; nn &amp;lt; n; ++nn)" style="verticalLabelPosition=middle;verticalAlign=middle;html=1;shape=hexagon;perimeter=hexagonPerimeter2;arcSize=6;size=0.15;labelPosition=center;align=center;" vertex="1" parent="1">
          <mxGeometry x="140" y="790" width="200" height="40" as="geometry" />
        </mxCell>
        <mxCell id="x2tvGu-vx3yb6WhZjUYL-32" value="1" style="text;html=1;strokeColor=none;fillColor=none;align=center;verticalAlign=middle;whiteSpace=wrap;rounded=0;" vertex="1" parent="1">
          <mxGeometry x="210" y="830" width="30" height="30" as="geometry" />
        </mxCell>
        <mxCell id="x2tvGu-vx3yb6WhZjUYL-33" value="{" style="text;html=1;strokeColor=none;fillColor=none;align=center;verticalAlign=middle;whiteSpace=wrap;rounded=0;" vertex="1" parent="1">
          <mxGeometry x="240" y="830" width="30" height="30" as="geometry" />
        </mxCell>
        <mxCell id="x2tvGu-vx3yb6WhZjUYL-34" value="0" style="text;html=1;strokeColor=none;fillColor=none;align=center;verticalAlign=middle;whiteSpace=wrap;rounded=0;" vertex="1" parent="1">
          <mxGeometry x="340" y="780" width="30" height="30" as="geometry" />
        </mxCell>
        <mxCell id="x2tvGu-vx3yb6WhZjUYL-35" style="edgeStyle=orthogonalEdgeStyle;rounded=0;orthogonalLoop=1;jettySize=auto;html=1;exitX=0;exitY=0.5;exitDx=0;exitDy=0;exitPerimeter=0;" edge="1" source="x2tvGu-vx3yb6WhZjUYL-37" parent="1">
          <mxGeometry relative="1" as="geometry">
            <mxPoint x="99.75999999999999" y="940" as="targetPoint" />
          </mxGeometry>
        </mxCell>
        <mxCell id="x2tvGu-vx3yb6WhZjUYL-36" style="edgeStyle=orthogonalEdgeStyle;rounded=0;orthogonalLoop=1;jettySize=auto;html=1;exitX=1;exitY=0.5;exitDx=0;exitDy=0;exitPerimeter=0;" edge="1" source="x2tvGu-vx3yb6WhZjUYL-37" parent="1">
          <mxGeometry relative="1" as="geometry">
            <mxPoint x="240" y="1000" as="targetPoint" />
            <Array as="points">
              <mxPoint x="360" y="900" />
              <mxPoint x="360" y="1000" />
            </Array>
          </mxGeometry>
        </mxCell>
        <mxCell id="x2tvGu-vx3yb6WhZjUYL-37" value="if (words[n] == words[nn])" style="strokeWidth=2;html=1;shape=mxgraph.flowchart.decision;whiteSpace=wrap;" vertex="1" parent="1">
          <mxGeometry x="139.76" y="870" width="200" height="60" as="geometry" />
        </mxCell>
        <mxCell id="x2tvGu-vx3yb6WhZjUYL-38" value="1" style="text;html=1;strokeColor=none;fillColor=none;align=center;verticalAlign=middle;whiteSpace=wrap;rounded=0;" vertex="1" parent="1">
          <mxGeometry x="109.75999999999999" y="870" width="30" height="30" as="geometry" />
        </mxCell>
        <mxCell id="x2tvGu-vx3yb6WhZjUYL-39" value="0" style="text;html=1;strokeColor=none;fillColor=none;align=center;verticalAlign=middle;whiteSpace=wrap;rounded=0;" vertex="1" parent="1">
          <mxGeometry x="339.76" y="870" width="30" height="30" as="geometry" />
        </mxCell>
        <mxCell id="x2tvGu-vx3yb6WhZjUYL-41" style="edgeStyle=orthogonalEdgeStyle;rounded=0;orthogonalLoop=1;jettySize=auto;html=1;exitX=0.5;exitY=1;exitDx=0;exitDy=0;" edge="1" parent="1" source="x2tvGu-vx3yb6WhZjUYL-40">
          <mxGeometry relative="1" as="geometry">
            <mxPoint x="240" y="1000" as="targetPoint" />
            <Array as="points">
              <mxPoint x="100" y="1000" />
            </Array>
          </mxGeometry>
        </mxCell>
        <mxCell id="x2tvGu-vx3yb6WhZjUYL-40" value="++cur;" style="rounded=1;whiteSpace=wrap;html=1;absoluteArcSize=1;arcSize=14;strokeWidth=2;" vertex="1" parent="1">
          <mxGeometry x="50" y="940" width="100" height="40" as="geometry" />
        </mxCell>
        <mxCell id="x2tvGu-vx3yb6WhZjUYL-42" value="" style="endArrow=classic;html=1;rounded=0;entryX=0;entryY=0.5;entryDx=0;entryDy=0;" edge="1" parent="1" target="x2tvGu-vx3yb6WhZjUYL-31">
          <mxGeometry width="50" height="50" relative="1" as="geometry">
            <mxPoint x="240" y="1000" as="sourcePoint" />
            <mxPoint x="320.59000000000015" y="920" as="targetPoint" />
            <Array as="points">
              <mxPoint x="240" y="1020" />
              <mxPoint x="40" y="1020" />
              <mxPoint x="40" y="810" />
            </Array>
          </mxGeometry>
        </mxCell>
        <mxCell id="x2tvGu-vx3yb6WhZjUYL-44" style="edgeStyle=orthogonalEdgeStyle;rounded=0;orthogonalLoop=1;jettySize=auto;html=1;exitX=0.5;exitY=1;exitDx=0;exitDy=0;entryX=0.5;entryY=0;entryDx=0;entryDy=0;entryPerimeter=0;" edge="1" parent="1" source="x2tvGu-vx3yb6WhZjUYL-43" target="x2tvGu-vx3yb6WhZjUYL-47">
          <mxGeometry relative="1" as="geometry">
            <mxPoint x="500.13043478260875" y="910" as="targetPoint" />
            <Array as="points">
              <mxPoint x="500" y="1030" />
              <mxPoint x="240" y="1030" />
            </Array>
          </mxGeometry>
        </mxCell>
        <mxCell id="x2tvGu-vx3yb6WhZjUYL-43" value="++n;" style="rounded=1;whiteSpace=wrap;html=1;absoluteArcSize=1;arcSize=14;strokeWidth=2;" vertex="1" parent="1">
          <mxGeometry x="450" y="850.0000000000002" width="100" height="40" as="geometry" />
        </mxCell>
        <mxCell id="x2tvGu-vx3yb6WhZjUYL-45" style="edgeStyle=orthogonalEdgeStyle;rounded=0;orthogonalLoop=1;jettySize=auto;html=1;exitX=0;exitY=0.5;exitDx=0;exitDy=0;exitPerimeter=0;" edge="1" source="x2tvGu-vx3yb6WhZjUYL-47" parent="1">
          <mxGeometry relative="1" as="geometry">
            <mxPoint x="99.75999999999999" y="1120" as="targetPoint" />
          </mxGeometry>
        </mxCell>
        <mxCell id="x2tvGu-vx3yb6WhZjUYL-46" style="edgeStyle=orthogonalEdgeStyle;rounded=0;orthogonalLoop=1;jettySize=auto;html=1;exitX=1;exitY=0.5;exitDx=0;exitDy=0;exitPerimeter=0;" edge="1" source="x2tvGu-vx3yb6WhZjUYL-47" parent="1">
          <mxGeometry relative="1" as="geometry">
            <mxPoint x="240" y="1180" as="targetPoint" />
            <Array as="points">
              <mxPoint x="380" y="1080" />
              <mxPoint x="380" y="1180" />
              <mxPoint x="240" y="1180" />
            </Array>
          </mxGeometry>
        </mxCell>
        <mxCell id="x2tvGu-vx3yb6WhZjUYL-47" value="if (cur &amp;gt;= 2)" style="strokeWidth=2;html=1;shape=mxgraph.flowchart.decision;whiteSpace=wrap;" vertex="1" parent="1">
          <mxGeometry x="139.76" y="1050" width="200" height="60" as="geometry" />
        </mxCell>
        <mxCell id="x2tvGu-vx3yb6WhZjUYL-48" value="1" style="text;html=1;strokeColor=none;fillColor=none;align=center;verticalAlign=middle;whiteSpace=wrap;rounded=0;" vertex="1" parent="1">
          <mxGeometry x="109.75999999999999" y="1050" width="30" height="30" as="geometry" />
        </mxCell>
        <mxCell id="x2tvGu-vx3yb6WhZjUYL-49" value="0" style="text;html=1;strokeColor=none;fillColor=none;align=center;verticalAlign=middle;whiteSpace=wrap;rounded=0;" vertex="1" parent="1">
          <mxGeometry x="339.76" y="1050" width="30" height="30" as="geometry" />
        </mxCell>
        <mxCell id="x2tvGu-vx3yb6WhZjUYL-51" style="edgeStyle=orthogonalEdgeStyle;rounded=0;orthogonalLoop=1;jettySize=auto;html=1;exitX=0.5;exitY=1;exitDx=0;exitDy=0;" edge="1" parent="1" source="x2tvGu-vx3yb6WhZjUYL-50">
          <mxGeometry relative="1" as="geometry">
            <mxPoint x="240" y="1179.9999999999998" as="targetPoint" />
            <Array as="points">
              <mxPoint x="100" y="1180" />
            </Array>
          </mxGeometry>
        </mxCell>
        <mxCell id="x2tvGu-vx3yb6WhZjUYL-50" value="matching = true;" style="rounded=1;whiteSpace=wrap;html=1;absoluteArcSize=1;arcSize=14;strokeWidth=2;" vertex="1" parent="1">
          <mxGeometry x="50" y="1120" width="100" height="40" as="geometry" />
        </mxCell>
        <mxCell id="x2tvGu-vx3yb6WhZjUYL-52" value="" style="endArrow=classic;html=1;rounded=0;" edge="1" parent="1">
          <mxGeometry width="50" height="50" relative="1" as="geometry">
            <mxPoint x="240" y="1180" as="sourcePoint" />
            <mxPoint x="420" y="1200" as="targetPoint" />
            <Array as="points">
              <mxPoint x="240" y="1200" />
            </Array>
          </mxGeometry>
        </mxCell>
        <mxCell id="x2tvGu-vx3yb6WhZjUYL-53" style="edgeStyle=orthogonalEdgeStyle;rounded=0;orthogonalLoop=1;jettySize=auto;html=1;exitX=0;exitY=0.5;exitDx=0;exitDy=0;exitPerimeter=0;entryX=0.5;entryY=0;entryDx=0;entryDy=0;" edge="1" source="x2tvGu-vx3yb6WhZjUYL-55" parent="1" target="x2tvGu-vx3yb6WhZjUYL-23">
          <mxGeometry relative="1" as="geometry">
            <mxPoint x="239.73" y="610" as="targetPoint" />
          </mxGeometry>
        </mxCell>
        <mxCell id="x2tvGu-vx3yb6WhZjUYL-54" style="edgeStyle=orthogonalEdgeStyle;rounded=0;orthogonalLoop=1;jettySize=auto;html=1;exitX=1;exitY=0.5;exitDx=0;exitDy=0;exitPerimeter=0;" edge="1" source="x2tvGu-vx3yb6WhZjUYL-55" parent="1">
          <mxGeometry relative="1" as="geometry">
            <mxPoint x="420" y="1200" as="targetPoint" />
            <Array as="points">
              <mxPoint x="580" y="570" />
              <mxPoint x="580" y="1200" />
            </Array>
          </mxGeometry>
        </mxCell>
        <mxCell id="x2tvGu-vx3yb6WhZjUYL-55" value="if ((row[i] == 32) || (row[i] == &#39;\0&#39;))" style="strokeWidth=2;html=1;shape=mxgraph.flowchart.decision;whiteSpace=wrap;" vertex="1" parent="1">
          <mxGeometry x="269.46000000000004" y="540" width="220.54" height="60" as="geometry" />
        </mxCell>
        <mxCell id="x2tvGu-vx3yb6WhZjUYL-56" value="1" style="text;html=1;strokeColor=none;fillColor=none;align=center;verticalAlign=middle;whiteSpace=wrap;rounded=0;" vertex="1" parent="1">
          <mxGeometry x="249.73" y="540" width="30" height="30" as="geometry" />
        </mxCell>
        <mxCell id="x2tvGu-vx3yb6WhZjUYL-57" value="0" style="text;html=1;strokeColor=none;fillColor=none;align=center;verticalAlign=middle;whiteSpace=wrap;rounded=0;" vertex="1" parent="1">
          <mxGeometry x="479.73" y="540" width="30" height="30" as="geometry" />
        </mxCell>
        <mxCell id="x2tvGu-vx3yb6WhZjUYL-58" value="" style="endArrow=classic;html=1;rounded=0;" edge="1" parent="1">
          <mxGeometry width="50" height="50" relative="1" as="geometry">
            <mxPoint x="420" y="1200" as="sourcePoint" />
            <mxPoint x="420" y="1220" as="targetPoint" />
            <Array as="points">
              <mxPoint x="420" y="1220" />
            </Array>
          </mxGeometry>
        </mxCell>
        <mxCell id="x2tvGu-vx3yb6WhZjUYL-61" style="edgeStyle=orthogonalEdgeStyle;rounded=0;orthogonalLoop=1;jettySize=auto;html=1;exitX=0.5;exitY=1;exitDx=0;exitDy=0;" edge="1" parent="1" source="x2tvGu-vx3yb6WhZjUYL-60">
          <mxGeometry relative="1" as="geometry">
            <mxPoint x="380" y="428.75" as="targetPoint" />
            <Array as="points">
              <mxPoint x="420" y="1280" />
              <mxPoint x="20" y="1280" />
              <mxPoint x="20" y="429" />
            </Array>
          </mxGeometry>
        </mxCell>
        <mxCell id="x2tvGu-vx3yb6WhZjUYL-60" value="++i;" style="rounded=1;whiteSpace=wrap;html=1;absoluteArcSize=1;arcSize=14;strokeWidth=2;" vertex="1" parent="1">
          <mxGeometry x="369.76000000000016" y="1220" width="100" height="40" as="geometry" />
        </mxCell>
        <mxCell id="x2tvGu-vx3yb6WhZjUYL-63" style="edgeStyle=orthogonalEdgeStyle;rounded=0;orthogonalLoop=1;jettySize=auto;html=1;exitX=0.5;exitY=1;exitDx=0;exitDy=0;" edge="1" parent="1" source="x2tvGu-vx3yb6WhZjUYL-62">
          <mxGeometry relative="1" as="geometry">
            <mxPoint x="680" y="580" as="targetPoint" />
          </mxGeometry>
        </mxCell>
        <mxCell id="x2tvGu-vx3yb6WhZjUYL-62" value="delete[] words;" style="shape=parallelogram;html=1;strokeWidth=2;perimeter=parallelogramPerimeter;whiteSpace=wrap;rounded=1;arcSize=12;size=0.16666666666666666;" vertex="1" parent="1">
          <mxGeometry x="600" y="520" width="160" height="40" as="geometry" />
        </mxCell>
        <mxCell id="x2tvGu-vx3yb6WhZjUYL-64" value="return matching;" style="ellipse;whiteSpace=wrap;html=1;" vertex="1" parent="1">
          <mxGeometry x="620" y="580" width="120" height="40" as="geometry" />
        </mxCell>
        <mxCell id="x2tvGu-vx3yb6WhZjUYL-66" value="}" style="text;html=1;strokeColor=none;fillColor=none;align=center;verticalAlign=middle;whiteSpace=wrap;rounded=0;" vertex="1" parent="1">
          <mxGeometry x="740" y="584" width="30" height="30" as="geometry" />
        </mxCell>
        <mxCell id="x2tvGu-vx3yb6WhZjUYL-67" value="{" style="text;html=1;strokeColor=none;fillColor=none;align=center;verticalAlign=middle;whiteSpace=wrap;rounded=0;" vertex="1" parent="1">
          <mxGeometry x="269.46000000000004" y="50" width="30" height="30" as="geometry" />
        </mxCell>
      </root>
    </mxGraphModel>
  </diagram>
</mxfile>
